<svg width="18" height="10" viewBox="0 0 18 10" fill="none" xmlns="http://www.w3.org/2000/svg">
<path d="M8.99996 9.31636C8.92632 9.31636 8.85345 9.30136 8.78577 9.27228C8.71808 9.24321 8.657 9.20065 8.60621 9.14719L1.10621 1.62872C1.0545 1.57688 1.01349 1.51535 0.985503 1.44762C0.957519 1.37989 0.943115 1.30731 0.943115 1.234C0.943115 1.16069 0.957519 1.0881 0.985503 1.02038C1.01349 0.952652 1.0545 0.891115 1.10621 0.83928C1.15792 0.787445 1.21931 0.746326 1.28687 0.718273C1.35443 0.69022 1.42684 0.675781 1.49996 0.675781C1.57309 0.675781 1.6455 0.69022 1.71306 0.718273C1.78062 0.746326 1.842 0.787445 1.89371 0.83928L8.99996 7.95363L16.1062 0.83928C16.2106 0.734594 16.3523 0.675781 16.5 0.675781C16.6476 0.675781 16.7893 0.734594 16.8937 0.83928C16.9981 0.943966 17.0568 1.08595 17.0568 1.234C17.0568 1.38205 16.9981 1.52403 16.8937 1.62872L9.39371 9.14719C9.34293 9.20065 9.28184 9.24321 9.21416 9.27228C9.14647 9.30136 9.0736 9.31636 8.99996 9.31636Z" fill="black"/>
</svg>
