<svg width="22" height="20" viewBox="0 0 22 20" fill="none" xmlns="http://www.w3.org/2000/svg">
<path d="M20.4125 15.9177C20.9923 14.8586 21.3021 13.6723 21.3142 12.4642C21.3263 11.2561 21.0403 10.0638 20.4818 8.99324C19.9232 7.92269 19.1094 7.00713 18.1127 6.32799C17.1159 5.64885 15.9672 5.22719 14.7687 5.10053C14.3883 4.18192 13.8254 3.35053 13.1143 2.65695C12.4031 1.96337 11.5586 1.42212 10.6322 1.06615C9.70573 0.710173 8.71671 0.546918 7.72532 0.586321C6.73393 0.625724 5.76091 0.866961 4.86548 1.29535C3.97005 1.72373 3.17095 2.33031 2.51683 3.07815C1.8627 3.82599 1.36722 4.69945 1.06056 5.64536C0.753904 6.59128 0.642473 7.58986 0.733053 8.58032C0.823633 9.57078 1.11433 10.5324 1.58745 11.4066L0.98745 13.5212C0.933367 13.7141 0.931495 13.9179 0.982026 14.1117C1.03256 14.3055 1.13367 14.4823 1.27496 14.6239C1.41626 14.7656 1.59264 14.8669 1.78596 14.9176C1.97929 14.9682 2.18259 14.9664 2.37495 14.9121L4.48432 14.3107C5.33305 14.7801 6.26711 15.0741 7.2312 15.1753C7.62174 16.1305 8.20916 16.9923 8.95499 17.7042C9.70082 18.4161 10.5882 18.9621 11.5591 19.3063C12.53 19.6506 13.5625 19.7854 14.589 19.7019C15.6155 19.6183 16.6128 19.3184 17.5156 18.8217L19.625 19.4232C19.8176 19.4807 20.0222 19.4849 20.2171 19.4354C20.412 19.386 20.5899 19.2846 20.732 19.1421C20.8742 18.9996 20.9753 18.8213 21.0246 18.6259C21.074 18.4306 21.0698 18.2255 21.0125 18.0323L20.4125 15.9177ZM4.55932 13.1359C4.50492 13.1354 4.45088 13.1449 4.39995 13.1641L2.06557 13.8314L2.7312 11.4912C2.7546 11.418 2.76169 11.3404 2.75197 11.2641C2.74225 11.1878 2.71596 11.1146 2.67495 11.0495C1.90779 9.75167 1.63956 8.21774 1.9206 6.73568C2.20164 5.25363 3.01263 3.92536 4.20134 3.00023C5.39004 2.07509 6.87471 1.6167 8.37665 1.7111C9.87859 1.80551 11.2945 2.44621 12.3586 3.51295C13.4227 4.57969 14.0619 5.9991 14.1561 7.50474C14.2502 9.01038 13.793 10.4987 12.8701 11.6903C11.9472 12.882 10.6222 13.695 9.14382 13.9767C7.6654 14.2584 6.13524 13.9895 4.84057 13.2205C4.75698 13.1656 4.65927 13.1362 4.55932 13.1359ZM19.2687 16.0023L19.9343 18.3424L17.6 17.6752C17.5269 17.6517 17.4495 17.6446 17.3734 17.6544C17.2973 17.6641 17.2242 17.6905 17.1593 17.7316C16.4298 18.1641 15.6195 18.4419 14.7786 18.548C13.9377 18.6541 13.084 18.5861 12.2703 18.3483C11.4566 18.1104 10.7003 17.7078 10.048 17.1653C9.39573 16.6228 8.86141 15.9519 8.47808 15.1941C10.3294 15.0702 12.0648 14.2464 13.3335 12.8891C14.6021 11.5319 15.3094 9.74238 15.3125 7.88237C15.3103 7.34805 15.2506 6.81553 15.1343 6.29409C16.113 6.47836 17.0329 6.89633 17.8162 7.51261C18.5996 8.12889 19.2232 8.92533 19.6344 9.83449C20.0455 10.7436 20.2321 11.7387 20.1782 12.7355C20.1243 13.7322 19.8317 14.7013 19.325 15.5606C19.2839 15.6256 19.2576 15.6989 19.2479 15.7752C19.2382 15.8515 19.2453 15.929 19.2687 16.0023Z" fill="black"/>
</svg>
